<svg xmlns="http://www.w3.org/2000/svg" height="400" viewBox="0, 0, 600, 400" class="prism-line-chart quickCalcs_prism-line-chart__dgUx9"><g class="inner-container" transform="translate(40, 5)"><rect width="545" height="360" fill="none"/><g class="axis y-axis-left"><g transform="translate(0, 360)"><g transform="translate(0, 0)"><text class="label yLabel" style="text-anchor: end; transform: translate(-11px, -4px);">-40</text></g></g><g transform="translate(0, 332.3076923076923)"><g transform="translate(0, 0)"><line class="tick" stroke="currentColor" x2="-8"/><text class="label yLabel" style="text-anchor: end; transform: translate(-11px, 4px);">-20</text></g></g><g transform="translate(0, 304.6153846153846)"><g transform="translate(0, 0)"/></g><g transform="translate(0, 276.9230769230769)"><g transform="translate(0, 0)"><line class="tick" stroke="currentColor" x2="-8"/><text class="label yLabel" style="text-anchor: end; transform: translate(-11px, 4px);">20</text></g></g><g transform="translate(0, 249.23076923076923)"><g transform="translate(0, 0)"><line class="tick" stroke="currentColor" x2="-8"/><text class="label yLabel" style="text-anchor: end; transform: translate(-11px, 4px);">40</text></g></g><g transform="translate(0, 221.53846153846155)"><g transform="translate(0, 0)"><line class="tick" stroke="currentColor" x2="-8"/><text class="label yLabel" style="text-anchor: end; transform: translate(-11px, 4px);">60</text></g></g><g transform="translate(0, 193.84615384615384)"><g transform="translate(0, 0)"><line class="tick" stroke="currentColor" x2="-8"/><text class="label yLabel" style="text-anchor: end; transform: translate(-11px, 4px);">80</text></g></g><g transform="translate(0, 166.15384615384616)"><g transform="translate(0, 0)"><line class="tick" stroke="currentColor" x2="-8"/><text class="label yLabel" style="text-anchor: end; transform: translate(-11px, 4px);">100</text></g></g><g transform="translate(0, 138.46153846153845)"><g transform="translate(0, 0)"><line class="tick" stroke="currentColor" x2="-8"/><text class="label yLabel" style="text-anchor: end; transform: translate(-11px, 4px);">120</text></g></g><g transform="translate(0, 110.76923076923077)"><g transform="translate(0, 0)"><line class="tick" stroke="currentColor" x2="-8"/><text class="label yLabel" style="text-anchor: end; transform: translate(-11px, 4px);">140</text></g></g><g transform="translate(0, 83.07692307692307)"><g transform="translate(0, 0)"><line class="tick" stroke="currentColor" x2="-8"/><text class="label yLabel" style="text-anchor: end; transform: translate(-11px, 4px);">160</text></g></g><g transform="translate(0, 55.38461538461539)"><g transform="translate(0, 0)"><line class="tick" stroke="currentColor" x2="-8"/><text class="label yLabel" style="text-anchor: end; transform: translate(-11px, 4px);">180</text></g></g><g transform="translate(0, 27.692307692307672)"><g transform="translate(0, 0)"><line class="tick" stroke="currentColor" x2="-8"/><text class="label yLabel" style="text-anchor: end; transform: translate(-11px, 4px);">200</text></g></g><g transform="translate(0, 0)"><g transform="translate(0, 0)"><line class="tick" stroke="currentColor" x2="-8"/><text class="label yLabel" style="text-anchor: end; transform: translate(-11px, 4px);">220</text></g></g><path class="axis-line" d="M-0, 360H0V0H-0" fill="none" stroke="currentColor" transform="translate(0, 0)"/></g><g class="axis x-axis" transform="translate(0, 360)"><g transform="translate(0, 0)"><g transform="translate(0, -55.384615384615415)"><text class="label" style="text-anchor: middle; transform: translate(7px, 20px);">0</text></g></g><g transform="translate(68.125, 0)"><g transform="translate(0, -55.384615384615415)"><line class="tick" stroke="currentColor" y2="8"/><text class="label" style="text-anchor: middle; transform: translate(0px, 20px);">20</text></g></g><g transform="translate(136.25, 0)"><g transform="translate(0, -55.384615384615415)"><line class="tick" stroke="currentColor" y2="8"/><text class="label" style="text-anchor: middle; transform: translate(0px, 20px);">40</text></g></g><g transform="translate(204.375, 0)"><g transform="translate(0, -55.384615384615415)"><line class="tick" stroke="currentColor" y2="8"/><text class="label" style="text-anchor: middle; transform: translate(0px, 20px);">60</text></g></g><g transform="translate(272.5, 0)"><g transform="translate(0, -55.384615384615415)"><line class="tick" stroke="currentColor" y2="8"/><text class="label" style="text-anchor: middle; transform: translate(0px, 20px);">80</text></g></g><g transform="translate(340.625, 0)"><g transform="translate(0, -55.384615384615415)"><line class="tick" stroke="currentColor" y2="8"/><text class="label" style="text-anchor: middle; transform: translate(0px, 20px);">100</text></g></g><g transform="translate(408.75, 0)"><g transform="translate(0, -55.384615384615415)"><line class="tick" stroke="currentColor" y2="8"/><text class="label" style="text-anchor: middle; transform: translate(0px, 20px);">120</text></g></g><g transform="translate(476.875, 0)"><g transform="translate(0, -55.384615384615415)"><line class="tick" stroke="currentColor" y2="8"/><text class="label" style="text-anchor: middle; transform: translate(0px, 20px);">140</text></g></g><g transform="translate(545, 0)"><g transform="translate(0, -55.384615384615415)"><line class="tick" stroke="currentColor" y2="8"/><text class="label" style="text-anchor: middle; transform: translate(0px, 20px);">160</text></g></g><path class="axis-line" d="M0,0v-0H545" fill="none" stroke="currentColor" transform="translate(0, -55.384615384615415)"/></g><g class="lines-group"><path class="line" d="M405.344,308.663L384.906,296.503L340.625,270.157L299.75,245.837L245.25,213.41L170.313,168.824L88.563,120.184L61.313,103.97L40.875,91.81" stroke="#000"/></g><g class="markers-group"><circle class="marker quickCalcs_prism-line-chart__dgUx9" cx="405.34375" cy="293.53846153846155" r="4" fill="#000"/><circle class="marker quickCalcs_prism-line-chart__dgUx9" cx="384.90625" cy="283.8461538461538" r="4" fill="#000"/><circle class="marker quickCalcs_prism-line-chart__dgUx9" cx="340.625" cy="267.2307692307692" r="4" fill="#000"/><circle class="marker quickCalcs_prism-line-chart__dgUx9" cx="299.75" cy="257.53846153846155" r="4" fill="#000"/><circle class="marker quickCalcs_prism-line-chart__dgUx9" cx="245.25" cy="234" r="4" fill="#000"/><circle class="marker quickCalcs_prism-line-chart__dgUx9" cx="170.3125" cy="189.6923076923077" r="4" fill="#000"/><circle class="marker quickCalcs_prism-line-chart__dgUx9" cx="88.5625" cy="142.61538461538464" r="4" fill="#000"/><circle class="marker quickCalcs_prism-line-chart__dgUx9" cx="61.3125" cy="91.38461538461539" r="4" fill="#000"/><circle class="marker quickCalcs_prism-line-chart__dgUx9" cx="40.875" cy="59.538461538461526" r="4" fill="#000"/></g></g></svg>